<?xml version="1.0" encoding="UTF-8" standalone="no"?>
<svg version="1.1" viewBox="0 0 1024 1024" xmlns="http://www.w3.org/2000/svg" style="fill: #bb7f0d">
  <path d="m 537.12305,646.04297 c -0.69962,0.003 -1.50727,0.14833 -2.44922,0.4375 -23.19304,7.11979 -46.4873,7.14781 -69.80078,0.45508 -1.1767,-0.33771 -2.45399,-1.2627 -3.93164,0.79883 45.35604,51.8313 91.4592,103.10312 137.47265,154.45312 0.49488,-0.32001 0.98957,-0.64087 1.48438,-0.96094 -16.46702,-42.43815 -32.93472,-84.87563 -49.71485,-128.02344 -2.98338,-7.76389 -6.08051,-15.48707 -8.89843,-23.31054 -0.9294,-2.58028 -2.06328,-3.85921 -4.16211,-3.84961 z m -3.63086,8.15039 c 1.63686,0.0461 2.52336,1.00791 3.30078,3.01758 14.17117,36.63206 28.42629,73.23335 42.64844,109.8457 0.34838,0.89673 0.55908,1.8462 0.83398,2.77148 -0.3855,0.30695 -0.77075,0.61298 -1.15625,0.91993 -11.67374,-13.11918 -23.3467,-26.23698 -35.27344,-39.60547 -21.43788,-24.08242 -42.62435,-47.91618 -63.77343,-71.70899 1.89561,-2.42821 3.88406,-1.79449 5.5332,-1.57421 15.57421,2.08049 30.86466,0.35392 45.97656,-3.41211 0.73573,-0.18335 1.36454,-0.26929 1.91016,-0.25391 z"/>
  <path d="m 372.99805,610.32617 c 17.44964,47.93148 36.09855,94.90781 54.45507,142.81836 6.62176,16.88503 13.24346,33.77122 19.86524,50.65625 0.47717,-0.13318 0.95447,-0.26721 1.43164,-0.40039 -0.18719,-7.07792 -0.49109,-14.13991 -0.73438,-21.23242 -0.91765,-26.75684 -1.98126,-53.50512 -3.15429,-80.25195 -0.69977,-15.955 -0.78488,-31.93668 -1.26953,-47.90235 -0.27042,-8.90818 -0.38613,-8.89887 -9.16211,-11.02734 -1.2941,-0.31384 -2.57743,-0.67346 -3.85352,-1.05469 -19.15795,-5.72447 -35.65857,-16.25412 -51.33203,-28.30859 -1.6235,-1.24866 -2.96016,-3.13752 -6.24609,-3.29688 z m 15.57617,18.75781 c 1.35663,0.002 2.17645,0.89483 3.03906,1.46094 12.46421,8.17961 25.69473,14.73805 40.14063,18.5625 3.60954,0.95569 4.55355,2.74727 4.67968,6.29492 0.62571,17.5983 1.61564,35.18425 2.34571,52.7793 0.72985,17.58914 1.32098,35.18467 1.90625,52.7793 0.0354,1.065 0.42843,2.36145 -1.38477,3.85351 -3.12661,-8.02738 -6.14908,-15.78456 -9.3125,-23.90234 -14.41183,-37.38554 -28.6814,-74.41274 -42.9707,-111.48828 0.59308,-0.2423 1.10443,-0.3405 1.55664,-0.33985 z" />
  <path d="m 638.4375,582.49805 c -0.91447,-0.1268 -1.89768,0.7619 -3.35156,2.57031 -17.87686,22.23604 -39.7899,39.15542 -66.07227,50.36719 -1.61047,0.68707 -3.56543,1.11188 -4.14258,3.20898 0.39777,2.03009 2.10462,2.99231 3.42188,4.1875 19.23598,17.45187 38.54496,34.82407 57.76367,52.29492 22.9131,20.82937 45.79027,41.69951 68.61914,62.6211 15.83408,14.51125 31.56193,29.14028 47.86328,44.19336 l 18.34961,17.73437 c -0.20105,-1.95678 -0.93873,-3.43219 -1.6914,-4.89844 -28.9037,-56.30194 -57.78668,-112.6151 -86.72657,-168.89843 -10.28172,-19.99636 -20.66188,-39.94291 -31.09375,-59.86133 -1.17929,-2.25177 -2.02498,-3.39273 -2.93945,-3.51953 z m -1,10.26953 c 19.3561,37.54545 38.15196,74.0027 57.12109,110.78906 13.98667,27.2306 27.79899,54.13232 41.61133,81.0332 -0.42297,0.33564 -0.8465,0.67023 -1.26953,1.00586 -52.49288,-48.58156 -105.32945,-96.78531 -159.64844,-145.4375 24.31234,-11.26591 44.47404,-26.64945 62.18555,-47.39062 z"/>
  <path d="m 673.55859,485.36523 c -1.6638,2.4953 -1.21557,4.20197 -1.21679,5.80469 -0.0176,22.66536 -5.80776,43.71263 -17.52149,63.13086 -3.9995,6.62999 -3.95788,6.63453 2.87696,10.78711 39.9827,24.29183 79.95576,48.59899 119.94335,72.88281 8.52374,5.17627 17.0939,10.277 25.64258,15.41211 0.22455,-0.29803 0.44922,-0.59656 0.67383,-0.89453 -6.07939,-7.91154 -12.15796,-15.82295 -18.6543,-24.31836 -37.21031,-47.45339 -73.71845,-95.46435 -111.74414,-142.80469 z m 6.125,17.90821 c 32.59516,41.86381 64.57172,82.93251 96.54688,124 -0.37518,0.45514 -0.75177,0.91015 -1.12695,1.36523 -36.98913,-22.44051 -73.97841,-44.88047 -111.28516,-67.51367 -2.7912,-1.50757 -3.53192,-3.08905 -1.95508,-5.82227 8.48619,-14.7098 14.06129,-30.42508 15.97656,-47.37304 0.12281,-1.08685 0.81257,-2.11089 1.84375,-4.65625 z"/>
  <path d="m 323.64844,481.87695 c -0.5115,-0.20967 -1.17133,-0.11439 -1.90821,0.17969 -2.31654,0.92453 -4.65986,1.80316 -6.89843,2.89453 -39.8123,19.4089 -79.61707,38.83433 -119.39453,58.31445 -2.22414,1.08924 -4.93115,1.69753 -6.83789,5.20508 50.66016,0.65332 100.49567,2.77588 151.39062,3.07227 -4.49963,-12.05772 -8.61048,-22.5812 -11.00977,-33.63477 -2.40404,-11.07548 -4.01353,-22.24907 -4.31835,-34.38281 -0.14846,-0.92317 -0.51194,-1.43877 -1.02344,-1.64844 z"/>
  <path d="m 661.82227,393.10742 c 2.27214,7.95442 5.16589,15.35921 7.60742,22.91016 4.9918,15.4378 8.49712,31.15027 6.86719,47.54101 -0.39948,4.01672 1.77369,5.07877 5.00585,5.97461 47.9492,13.29051 95.87357,26.67334 143.82032,39.97266 2.67375,0.74167 5.36896,1.87323 9.28906,1.36523 -45.95425,-31.83934 -91.13027,-63.14053 -136.89258,-94.85351 -11.79166,-7.75383 -22.80692,-16.74366 -35.69726,-22.91016 z m 13.83398,15.74414 c 40.86637,28.24183 81.41823,56.26547 121.96875,84.28906 -0.26208,0.53241 -0.52502,1.06525 -0.78711,1.59766 -23.45137,-6.49653 -46.90276,-12.99406 -70.75195,-19.57617 -12.0825,-3.35812 -23.74386,-6.71723 -35.46289,-9.86133 -4.72217,-1.2669 -7.56092,-2.12154 -7.41797,-8.9082 0.29712,-14.09242 -2.49244,-28.07104 -7.07227,-41.55274 -0.51202,-1.50722 -1.58954,-2.96262 -0.47656,-5.98828 z"/>
  <path d="m 191.4668,386.53125 c -0.10656,0.64105 -0.21181,1.28281 -0.31836,1.92383 44.11456,23.76475 88.22756,47.53047 133.04492,71.67383 0.60208,-5.73437 1.06787,-10.15871 1.625,-15.46875 2.49221,-18.66202 8.27867,-36.40318 16.63281,-54.71485 -51.35601,-1.98001 -101.17911,-2.27362 -150.98437,-3.41406 z"/>
  <path d="m 630.94922,378.16797 c -1.15681,-0.19486 -2.45267,0.37431 -4.13672,1.67187 -22.16164,17.07581 -44.43742,34.00443 -66.72656,50.91407 -47.76376,36.23585 -95.55265,72.43628 -143.3418,108.63867 -14.86965,11.26438 -29.71344,22.56624 -44.70117,33.67187 -3.69607,2.73871 -4.16751,5.02187 -0.83789,8.3125 3.07348,3.03748 5.64344,6.59333 8.77148,9.56641 28.4723,27.06165 62.65449,41.98775 101.47071,45.49609 33.39177,3.01807 65.44329,-2.90841 94.83593,-19.77539 34.12439,-19.58236 59.94333,-46.70784 74.6211,-83.74218 9.21983,-23.26305 10.91638,-47.48682 9.72656,-73.0625 -0.63892,-4.43723 -1.1936,-8.88952 -1.92969,-13.31055 -3.89708,-23.40596 -11.48288,-45.42476 -24.4414,-65.47266 -1.13477,-1.75564 -2.15375,-2.71335 -3.31055,-2.9082 z m -3.05274,12.82812 c 1.5207,-0.17105 2.64907,0.95217 3.88282,3.32032 9.78587,18.78362 15.88697,38.61475 18.8164,59.62304 4.06103,29.12391 0.86228,57.26699 -11.57617,83.8086 -17.19387,36.68925 -45.60329,62.14095 -82.80273,78.59375 -65.72543,27.94019 -141.60517,2.41435 -175.02149,-38.03125 2.00278,-3.15887 5.41376,-4.77723 8.25977,-6.93946 70.1659,-53.30829 140.38887,-106.54041 210.5957,-159.79492 8.22813,-6.24134 16.52833,-12.39839 24.57813,-18.86328 1.3015,-1.04526 2.35517,-1.61417 3.26757,-1.7168 z"/>
  <path d="m 490.42773,315.05469 c -53.06579,1.49609 -102.85921,29.75931 -129.75195,77.38476 -32.11072,56.86629 -22.93723,129.30525 4.4375,161.70703 1.9024,-0.27526 3.19889,-1.64355 4.63477,-2.73242 10.88184,-8.25175 21.73473,-16.54262 32.61914,-24.79101 68.09517,-51.60403 136.19795,-103.19783 204.29101,-154.80469 4.9165,-3.72616 5.05071,-4.13301 0.85938,-8.93164 -17.02389,-19.4905 -38.52074,-31.97539 -63.66016,-40.13086 -17.68848,-5.72385 -35.74108,-8.19987 -53.42969,-7.70117 z"/>
  <path d="m 661.8457,205.94531 c -8.8989,8.80482 -17.61909,17.43388 -26.83008,26.57031 -26.27106,25.8826 -52.54198,51.76507 -78.72265,77.5586 2.4627,3.45315 5.30457,4.17813 7.86133,5.25781 16.71493,7.05858 31.92452,16.50408 45.54492,28.49414 5.6895,5.00848 7.37708,4.51735 9.80469,-2.82617 14.20889,-42.98255 28.44301,-85.95655 42.61523,-128.95117 0.56287,-1.70753 1.91766,-3.58713 -0.27344,-6.10352 z"/>
  <path d="m 277.31641,183.99805 -0.91993,0.84179 c 27.31386,59.26902 54.62755,118.53934 82.42579,178.85938 17.32555,-18.10464 35.63184,-33.10763 56.79687,-45.64063 3.85046,-2.73476 8.79526,-3.95468 12.22461,-8.89453 -50.26763,-41.79917 -100.39829,-83.4821 -150.52734,-125.16601 z"/>
  <path d="m 498.4707,156.93945 c -8.36036,31.87883 -16.73381,63.80259 -25.22656,96.54493 -4.14114,15.68227 -8.28199,31.36489 -12.31836,46.65039 2.44977,1.95152 4.3155,1.60839 6.08984,1.33203 19.23633,-2.99631 38.41173,-2.64423 57.53516,0.95508 6.84752,1.28874 8.30041,-0.11284 6.81445,-6.88868 -9.85905,-44.95742 -19.75642,-89.90617 -29.63476,-134.85937 -0.34024,-1.54849 -0.16425,-3.42467 -3.25977,-3.73438 z"/>
</svg>
